HIERARCHY
ROOT Hips
{
	OFFSET 0.00000 0.00000 0.00000
	CHANNELS 6 Xposition Yposition Zposition Zrotation Yrotation Xrotation 
	JOINT LHipJoint
	{
		OFFSET 0 0 0
		CHANNELS 3 Zrotation Yrotation Xrotation
		JOINT LeftUpLeg
		{
			OFFSET 1.77779 -1.88989 0.48267
			CHANNELS 3 Zrotation Yrotation Xrotation
			JOINT LeftLeg
			{
				OFFSET 2.53442 -6.96327 0.00000
				CHANNELS 3 Zrotation Yrotation Xrotation
				JOINT LeftFoot
				{
					OFFSET 2.71068 -7.44755 0.00000
					CHANNELS 3 Zrotation Yrotation Xrotation
					JOINT LeftToeBase
					{
						OFFSET 0.17992 -0.49431 2.22524
						CHANNELS 3 Zrotation Yrotation Xrotation
						End Site
						{
							OFFSET 0.00000 -0.00000 1.14687
						}
					}
				}
			}
		}
	}
	JOINT RHipJoint
	{
		OFFSET 0 0 0
		CHANNELS 3 Zrotation Yrotation Xrotation
		JOINT RightUpLeg
		{
			OFFSET -1.58469 -1.88989 0.48267
			CHANNELS 3 Zrotation Yrotation Xrotation
			JOINT RightLeg
			{
				OFFSET -2.60386 -7.15404 0.00000
				CHANNELS 3 Zrotation Yrotation Xrotation
				JOINT RightFoot
				{
					OFFSET -2.73334 -7.50979 0.00000
					CHANNELS 3 Zrotation Yrotation Xrotation
					JOINT RightToeBase
					{
						OFFSET -0.25618 -0.70384 2.21822
						CHANNELS 3 Zrotation Yrotation Xrotation
						End Site
						{
							OFFSET -0.00000 -0.00000 1.16381
						}
					}
				}
			}
		}
	}
	JOINT LowerBack
	{
		OFFSET 0 0 0
		CHANNELS 3 Zrotation Yrotation Xrotation
		JOINT Spine
		{
			OFFSET 0.03410 2.01612 -0.22230
			CHANNELS 3 Zrotation Yrotation Xrotation
			JOINT Spine1
			{
				OFFSET 0.03465 2.03012 0.00937
				CHANNELS 3 Zrotation Yrotation Xrotation
				JOINT Neck
				{
					OFFSET 0 0 0
					CHANNELS 3 Zrotation Yrotation Xrotation
					JOINT Neck1
					{
						OFFSET -0.00219 1.70459 0.20857
						CHANNELS 3 Zrotation Yrotation Xrotation
						JOINT Head
						{
							OFFSET 0.02518 1.72339 -0.22179
							CHANNELS 3 Zrotation Yrotation Xrotation
							End Site
							{
								OFFSET 0.00282 1.74122 -0.09823
							}
						}
					}
				}
				JOINT LeftShoulder
				{
					OFFSET 0 0 0
					CHANNELS 3 Zrotation Yrotation Xrotation
					JOINT LeftArm
					{
						OFFSET 3.36358 1.00547 -0.37661
						CHANNELS 3 Zrotation Yrotation Xrotation
						JOINT LeftForeArm
						{
							OFFSET 5.06507 -0.00000 0.00000
							CHANNELS 3 Zrotation Yrotation Xrotation
							JOINT LeftHand
							{
								OFFSET 3.60196 -0.00000 0.00000
								CHANNELS 3 Zrotation Yrotation Xrotation
								JOINT LeftFingerBase
								{
									OFFSET 0 0 0
									CHANNELS 3 Zrotation Yrotation Xrotation
									JOINT LeftHandIndex1
									{
										OFFSET 0.45035 -0.00000 0.00000
										CHANNELS 3 Zrotation Yrotation Xrotation
										End Site
										{
											OFFSET 0.36308 -0.00000 0.00000
										}
									}
								}
								JOINT LThumb
								{
									OFFSET 0 0 0
									CHANNELS 3 Zrotation Yrotation Xrotation
									End Site
									{
										OFFSET 0.36862 -0.00000 0.36862
									}
								}
							}
						}
					}
				}
				JOINT RightShoulder
				{
					OFFSET 0 0 0
					CHANNELS 3 Zrotation Yrotation Xrotation
					JOINT RightArm
					{
						OFFSET -3.50159 0.80383 -0.71526
						CHANNELS 3 Zrotation Yrotation Xrotation
						JOINT RightForeArm
						{
							OFFSET -5.36394 -0.00000 0.00000
							CHANNELS 3 Zrotation Yrotation Xrotation
							JOINT RightHand
							{
								OFFSET -3.58035 -0.00000 0.00000
								CHANNELS 3 Zrotation Yrotation Xrotation
								JOINT RightFingerBase
								{
									OFFSET 0 0 0
									CHANNELS 3 Zrotation Yrotation Xrotation
									JOINT RightHandIndex1
									{
										OFFSET -0.66375 -0.00000 0.00000
										CHANNELS 3 Zrotation Yrotation Xrotation
										End Site
										{
											OFFSET -0.53513 -0.00000 0.00000
										}
									}
								}
								JOINT RThumb
								{
									OFFSET 0 0 0
									CHANNELS 3 Zrotation Yrotation Xrotation
									End Site
									{
										OFFSET -0.54330 -0.00000 0.54330
									}
								}
							}
						}
					}
				}
			}
		}
	}
}
MOTION
Frames: 10
Frame Time: .0083333
1.5049 17.8647 -28.5787 0 0 0 0 0 0 -21 0 0 0 0 0 0 0 0 0 0 0 0 0 0 21 0 0 0 0 0 0 0 0 0 0 0 0 0 0 0 0 0 0 0 0 0 0 -16 0 0 21 0 0 11 0 0 0 -8 0 0 0 0 0 0 0 0 0 0 0 0 0 0 0 0 0 0 0 0 8 0 0 0 0 0 0 0 0 0 0 0 0 0 0 0 0 0
1.5049 17.8647 -28.5787 2.2193 -1.9251 -1.9242 0.0000 0.0000 0.0000 -27.4950 -2.5105 -1.9561 2.0826 9.0360 25.9079 0.7802 -3.2762 -15.9017 0.0013 0.2299 0.6316 0.0000 0.0000 0.0000 17.3047 8.9809 -31.0738 -9.3754 -17.0433 57.3796 -0.3148 -3.7266 -12.6371 -0.0064 -0.5147 1.4143 -2.3488 -0.1314 12.4095 0.4490 -0.4783 0.4011 1.8858 -0.1550 -6.5237 -1.2318 -3.3322 -19.0634 0.0302 -4.3345 23.5591 -0.4229 -2.0886 10.7715 -0.0000 -0.0000 0.0000 -81.5016 -5.8282 28.3884 16.0938 -25.6477 -3.6865 -0.0000 0.0000 -7.3373 33.4850 20.4355 13.0054 -7.1250 0.0000 -0.0000 5.3039 53.9748 1.1727 -0.0000 -0.0000 0.0000 90.3318 1.8197 4.0801 -12.3526 20.3313 -2.2233 0.0000 0.0000 6.8841 -19.7586 21.3176 -7.4399 7.1250 -0.0000 -0.0000 5.6448 -7.5487 4.8787
1.4959 17.8692 -28.4174 2.2869 -1.6968 -1.7468 0.0000 0.0000 0.0000 -27.5681 -2.2597 -1.3498 2.0084 8.8836 25.4320 0.7811 -3.2805 -15.9109 0.0011 0.2118 0.5819 0.0000 0.0000 0.0000 17.1330 8.9330 -31.5341 -8.5962 -16.5407 54.6828 -0.2690 -4.1568 -12.2259 -0.0026 -0.3287 0.9031 -3.3828 -1.0427 12.4352 1.4775 -1.7796 -0.7872 3.8198 -0.6943 -7.6809 -3.1404 -2.4065 -14.5107 0.0858 -2.6273 22.5633 0.2280 -1.4883 9.5722 -0.0000 -0.0000 0.0000 -83.1432 -2.9417 26.0225 16.4062 -26.0683 -3.8227 -0.0000 0.0000 -6.8337 33.1170 18.1588 11.4914 -7.1250 0.0000 -0.0000 5.1446 51.2940 0.7994 -0.0000 -0.0000 0.0000 88.3996 -0.7185 7.2454 -12.3742 20.3634 -2.2308 0.0000 0.0000 6.2494 -19.4380 21.4254 -7.3455 7.1250 -0.0000 -0.0000 5.8563 -7.4839 5.0709
1.4873 17.8659 -28.2597 2.3504 -1.5364 -1.5958 0.0000 0.0000 0.0000 -27.6230 -1.9066 -0.7528 1.9334 8.7259 24.9417 0.7872 -3.4076 -15.9584 0.0000 0.0329 0.0904 0.0000 0.0000 0.0000 16.9609 9.0019 -31.9774 -7.8686 -16.0218 52.0881 -0.2172 -4.7292 -11.8241 -0.0039 -0.4057 1.1149 -2.9722 -0.7831 12.3045 1.0536 -1.3956 -0.2519 3.0492 -0.5540 -7.0853 -2.4783 -2.7656 -16.5623 0.2296 -3.2723 23.0162 0.0532 -1.7052 10.1204 -0.0000 -0.0000 0.0000 -82.1858 -4.7960 27.5939 16.3041 -25.9312 -3.7779 -0.0000 0.0000 -6.8446 32.8777 17.5106 11.0057 -7.1250 0.0000 -0.0000 4.9537 50.5045 0.6734 -0.0000 -0.0000 0.0000 89.3011 0.1561 5.6917 -12.4933 20.5404 -2.2724 0.0000 0.0000 6.3241 -19.3605 21.3158 -7.2790 7.1250 -0.0000 -0.0000 5.8974 -7.6085 5.0924
1.4747 17.8621 -28.1026 2.4019 -1.5090 -1.4801 0.0000 0.0000 0.0000 -27.6732 -1.5438 -0.0684 1.8402 8.5249 24.3200 0.7844 -3.4082 -15.9289 0.0001 -0.0641 -0.1762 0.0000 0.0000 0.0000 16.7341 9.3723 -31.9857 -7.0977 -15.4136 49.2430 -0.2013 -4.9011 -11.6987 -0.0680 -1.6821 4.6280 -2.6336 -0.3740 12.3380 0.5684 -0.8282 0.6260 2.2313 -0.3230 -6.2216 -1.2645 -3.2255 -20.3661 0.0825 -4.1738 23.9011 -0.4029 -2.0011 11.1497 0.0000 -0.0000 0.0000 -81.0455 -7.5769 29.3646 16.2453 -25.8521 -3.7523 -0.0000 0.0000 -7.3475 31.8677 20.3298 12.1875 -7.1250 0.0000 -0.0000 3.5719 53.5144 0.7486 0.0000 -0.0000 0.0000 90.3835 2.0219 3.4927 -12.3966 20.3968 -2.2386 0.0000 0.0000 6.7753 -19.3569 21.6058 -7.3708 7.1250 -0.0000 -0.0000 5.9210 -7.3091 5.1479
1.4638 17.8732 -27.9413 2.5240 -1.3524 -1.3049 0.0000 0.0000 0.0000 -27.7844 -1.1792 0.7464 1.7056 8.2238 23.3959 0.7739 -3.4016 -15.8188 0.0032 -0.3676 -1.0100 0.0000 0.0000 0.0000 16.3779 9.7289 -31.9499 -6.3326 -14.7431 46.3025 -0.1664 -5.3739 -11.5153 -0.1412 -2.4220 6.6735 -3.6689 -1.1346 12.4272 1.5098 -1.9395 -0.5891 4.0401 -0.7699 -7.4391 -2.9580 -2.5263 -15.6694 -0.0256 -2.7703 22.6741 0.1253 -1.5483 9.8273 -0.0000 0.0000 0.0000 -82.6153 -4.7289 27.0923 16.6324 -26.3707 -3.9227 -0.0000 0.0000 -6.7595 30.7132 21.8251 12.4544 -7.1250 0.0000 -0.0000 2.0666 54.9449 0.5049 -0.0000 0.0000 0.0000 88.5961 -0.5355 5.9319 -12.3342 20.3039 -2.2169 0.0000 0.0000 6.3279 -18.9213 22.5862 -7.5003 7.1250 -0.0000 -0.0000 6.2691 -6.3618 5.5701
1.4508 17.8805 -27.7807 2.6566 -1.0352 -1.1854 0.0000 0.0000 0.0000 -27.8722 -0.8385 1.6908 1.5591 7.8801 22.3505 0.7619 -3.5849 -15.6684 0.0046 -0.4383 -1.2043 0.0000 0.0000 0.0000 16.2158 9.7062 -32.1765 -5.5329 -13.9599 43.0771 -0.0136 -6.8147 -10.0427 -0.0006 0.1632 -0.4485 -3.6611 -1.0927 12.4909 1.3245 -1.8994 -0.6442 3.8343 -0.7506 -7.5448 -2.6438 -2.6948 -15.5157 -0.0266 -3.0952 22.7335 0.0319 -1.6722 9.8179 -0.0000 0.0000 0.0000 -82.1799 -5.0694 27.9786 16.7792 -26.5658 -3.9881 -0.0000 0.0000 -6.7556 32.3166 20.8933 12.7129 -7.1250 0.0000 -0.0000 3.9726 54.2446 0.9036 -0.0000 0.0000 0.0000 89.0008 -0.8201 5.1198 -12.3600 20.3423 -2.2258 0.0000 0.0000 6.2809 -18.5336 22.9764 -7.4556 7.1250 -0.0000 -0.0000 6.5413 -6.0184 5.8586
1.4358 17.9170 -27.6197 2.9075 -0.8818 -1.0097 0.0000 0.0000 0.0000 -28.0861 -0.5208 2.5722 1.4183 7.5316 21.3002 0.7335 -3.6202 -15.3605 0.0022 -0.3051 -0.8382 0.0000 0.0000 0.0000 15.4921 10.4938 -31.7136 -4.7883 -13.1413 39.8999 -0.0218 -6.9910 -10.4700 -0.0919 -1.9549 5.3811 -3.8749 -1.0895 12.1972 1.2001 -1.9214 -0.3886 3.8090 -0.7727 -7.0995 -2.5466 -2.7595 -16.2922 0.0685 -3.2134 23.0668 0.0194 -1.7047 10.0852 -0.0000 -0.0000 0.0000 -81.8090 -5.9261 28.5063 16.9315 -26.7673 -4.0564 -0.0000 0.0000 -7.0716 34.2211 20.6325 13.4774 -7.1250 0.0000 -0.0000 6.0883 54.3597 1.4042 -0.0000 -0.0000 0.0000 89.2525 -0.5198 4.7485 -12.4360 20.4553 -2.2523 0.0000 0.0000 6.1690 -18.2421 23.1338 -7.3783 7.1250 -0.0000 -0.0000 6.7350 -5.9004 6.0499
1.4190 17.9208 -27.4552 2.9594 -0.7073 -0.8786 0.0000 0.0000 0.0000 -28.0461 -0.0727 3.3819 1.3050 7.2368 20.4188 0.7146 -3.7675 -15.1390 0.0078 -0.5716 -1.5706 0.0000 0.0000 0.0000 15.1587 11.1225 -31.2298 -4.0472 -12.2230 36.5253 0.0397 -7.8149 -10.2574 -0.0611 -1.5946 4.3865 -3.5563 -0.9132 11.8045 0.8382 -1.6400 0.3849 3.1662 -0.6903 -6.0983 -1.8612 -3.1394 -18.7221 0.0316 -3.8738 23.4813 -0.2433 -1.9380 10.6901 0.0000 -0.0000 0.0000 -80.9714 -8.0585 29.5874 16.8468 -26.6553 -4.0183 -0.0000 0.0000 -7.2473 33.2804 21.3673 13.4497 -7.1250 0.0000 -0.0000 4.9618 54.9906 1.2196 0.0000 -0.0000 0.0000 90.0389 0.9363 3.0863 -12.3245 20.2896 -2.2135 0.0000 0.0000 6.4346 -17.7534 24.0010 -7.4198 7.1250 -0.0000 -0.0000 7.1037 -5.0865 6.4972
1.4021 17.9019 -27.2930 3.0249 -0.4091 -0.7631 0.0000 0.0000 0.0000 -27.9936 0.3533 4.2348 1.1931 6.9310 19.5111 0.6951 -4.1482 -14.8934 0.0110 -0.6777 -1.8623 0.0000 0.0000 0.0000 14.8777 11.4894 -30.8936 -3.4010 -11.3175 33.3584 0.0987 -8.6419 -10.1925 -0.0026 -0.3307 0.9087 -3.9109 -1.2606 11.8348 1.1422 -2.1384 -0.0309 3.7815 -0.9021 -6.4934 -2.3711 -2.9913 -16.9896 -0.0358 -3.5382 22.9594 -0.1006 -1.8478 10.1774 -0.0000 0.0000 0.0000 -81.3824 -7.3837 28.8995 16.8563 -26.6679 -4.0226 -0.0000 0.0000 -7.0425 32.0015 21.0685 12.6610 -7.1250 0.0000 -0.0000 3.6034 54.3748 0.8309 -0.0000 0.0000 0.0000 89.5060 -0.1195 4.0589 -12.3901 20.3870 -2.2363 0.0000 0.0000 5.9395 -18.1829 23.5914 -7.4886 7.1250 -0.0000 -0.0000 6.8066 -5.4406 6.1753
